<?xml version="1.0" encoding="utf-8"?>
<!-- Generator: Adobe Illustrator 19.0.1, SVG Export Plug-In . SVG Version: 6.00 Build 0)  -->
<svg version="1.1" id="logo" xmlns="http://www.w3.org/2000/svg" xmlns:xlink="http://www.w3.org/1999/xlink" x="0px" y="0px"
	 viewBox="0 0 240 40" enable-background="new 0 0 240 40" xml:space="preserve">
<g>
	<polygon fill="#F47838" points="55.8,1.8 55.8,36 57.4,36 57.4,1.8 	"/>
	<g>
		<polygon fill="#01549C" points="36.1,29.8 36.1,21.2 44,21.2 44,15.5 36.1,15.5 36.1,7.4 44.8,7.4 44.8,10.6 50.6,10.6 50.6,1.8 
			27.5,1.8 27.5,7.4 29.6,7.4 29.6,29.8 27.5,29.8 27.5,35.5 38.1,35.5 38.1,29.8 		"/>
		<path fill="#01549C" d="M24.5,22.8V7.4h2.1V1.8H15.9v5.6H18v13.4c0,5.6-0.6,8.3-4.7,8.3c-4,0-4.7-2.7-4.7-8.3V7.4h2.1V1.8H0v5.6
			h2.1v15.3c0,3.4,0,6.1,1.6,8.6c1.8,2.8,5,4.6,9.6,4.6C21.5,35.9,24.5,31.6,24.5,22.8L24.5,22.8z"/>
	</g>
	<text transform="matrix(1 0 0 1 62.123 14.676)" fill="#01549C" font-family="'PalatinoLinotype-Bold'" font-size="18.1435px">Web Services</text>
	<g>
		<path fill="#01549C" d="M62.5,26.4v-0.6l2.3,0l0.9,0l0.9,0l0.3,0v0.6c-0.5,0-0.8,0-1,0.1c-0.1,0-0.1,0.1-0.1,0.2
			c-0.1,0.3-0.1,0.9-0.1,1.9v1.6l0,0.8c0,0.9,0,1.4,0,1.6c0,0.4,0.2,0.8,0.3,1.1s0.5,0.5,0.8,0.7c0.4,0.2,0.8,0.3,1.4,0.3
			c0.7,0,1.2-0.1,1.6-0.3c0.4-0.2,0.7-0.5,0.8-0.9c0.2-0.4,0.2-1,0.2-2v-1.4c0-1.2,0-2,0-2.3c0-0.6-0.1-1-0.1-1.1
			c0-0.1-0.1-0.1-0.2-0.2c-0.2-0.1-0.5-0.1-1-0.1v-0.6c0.8,0,1.4,0,1.5,0c0,0,0.1,0,0.2,0l1.6,0v0.6c-0.4,0-0.7,0-0.8,0.1
			c-0.1,0-0.1,0.1-0.1,0.2c0,0.1-0.1,0.6-0.1,1.4c0,0.9-0.1,1.5-0.1,2v1.7c0,0.4,0,0.9-0.1,1.3c-0.1,0.5-0.2,0.8-0.4,1.2
			c-0.2,0.3-0.4,0.6-0.8,0.9c-0.3,0.3-0.7,0.5-1.2,0.6s-1,0.2-1.6,0.2c-0.7,0-1.4-0.1-2-0.3c-0.4-0.1-0.8-0.3-1.1-0.6
			c-0.3-0.2-0.5-0.5-0.7-0.8c-0.2-0.3-0.2-0.6-0.3-0.8c0-0.2,0-0.6,0-1.4l0-1.3V29c0-0.7,0-1.3,0-1.8c0-0.2,0-0.4-0.1-0.5
			c0,0-0.1-0.1-0.2-0.2L62.5,26.4z"/>
		<path fill="#01549C" d="M73.9,35.1c0.6,0,0.9,0,1-0.1c0.1,0,0.1,0,0.1-0.1c0,0,0.1-0.1,0.1-0.3c0-0.2,0.1-0.6,0.1-1.3
			c0-0.4,0-0.9,0-1.5v-2.3l0-2c0-0.3,0-0.6,0-0.7c0-0.1-0.1-0.2-0.1-0.2c-0.1,0-0.1-0.1-0.2-0.1c-0.1,0-0.4-0.1-0.9-0.1v-0.6
			c0.6,0,1,0,1.3,0l1,0l0.7,0c1,1.3,2.1,2.7,3.5,4.4c1,1.2,1.8,2.1,2.5,2.8v-1.6c0-2.5,0-4-0.1-4.5c0-0.2-0.1-0.3-0.1-0.3
			c-0.1-0.1-0.5-0.1-1.1-0.1v-0.6c0.6,0,1.1,0,1.6,0c0.5,0,1.1,0,1.8,0v0.6c-0.6,0-0.9,0.1-1,0.1c0,0-0.1,0.1-0.1,0.1
			c-0.1,0.2-0.1,0.8-0.1,1.6s0,1.5,0,1.9c0,3.1,0,5,0.1,5.7l-0.1,0.1c-0.4-0.1-0.8-0.1-1.2-0.2C81,34,78.8,31.4,76,28v3.5
			c0,0.7,0,1.5,0.1,2.3c0,0.5,0.1,0.9,0.1,1c0,0.1,0.1,0.1,0.1,0.1c0.1,0,0.1,0.1,0.2,0.1c0.3,0,0.5,0,0.7,0c0,0,0.1,0,0.1,0v0.6
			c-0.9,0-1.4,0-1.5,0c-0.5,0-1.1,0-1.9,0L73.9,35.1L73.9,35.1z"/>
		<path fill="#01549C" d="M90.6,25.8v0.6c-0.5,0-0.8,0-0.8,0c-0.1,0-0.2,0-0.2,0.1s-0.1,0.1-0.1,0.1c0,0.1-0.1,0.2-0.1,0.5
			c0,0.1,0,0.4,0,0.7c0,1.2,0,1.8,0,1.9v2.8l0,1.3c0,0.5,0,0.8,0.1,1c0,0.1,0.1,0.1,0.1,0.2c0.1,0,0.1,0.1,0.2,0.1
			c0.1,0,0.4,0,0.8,0v0.6c-0.8,0-1.6,0-2.5,0c-0.8,0-1.4,0-2,0v-0.6c0.5,0,0.8,0,0.8,0c0.1,0,0.2,0,0.2-0.1c0,0,0.1-0.1,0.1-0.1
			c0,0,0-0.3,0.1-0.7c0-0.6,0.1-1.1,0.1-1.6v-3c0-0.9,0-1.5,0-1.8c0-0.6-0.1-1-0.1-1.1c0-0.1,0-0.1-0.1-0.1c0,0-0.1-0.1-0.2-0.1
			c-0.1,0-0.4,0-0.9-0.1v-0.6c0.6,0,1.3,0,2,0C89,25.9,89.8,25.9,90.6,25.8z"/>
		<path fill="#01549C" d="M96.3,35.8c-0.4-1-0.8-1.9-1.2-2.8l-1-2.4c-0.8-1.9-1.3-3-1.4-3.4c-0.2-0.4-0.3-0.6-0.4-0.6
			c-0.1-0.1-0.4-0.1-0.9-0.1v-0.6c1.1,0,1.8,0,2.1,0l2.5,0v0.6c-0.4,0-0.7,0-0.9,0.1c-0.1,0-0.2,0.1-0.2,0.1c0,0-0.1,0.1-0.1,0.2
			c0,0.1,0.2,0.6,0.5,1.3c0.2,0.4,0.3,0.7,0.3,0.7s0,0.1,0.1,0.1l1.8,4.4l1.6-3.9c0-0.1,0.2-0.5,0.5-1.3c0.2-0.6,0.3-0.9,0.4-1.1
			c0,0,0-0.1,0-0.2c0-0.1,0-0.1,0-0.2s-0.1-0.1-0.1-0.1c0,0-0.1,0-0.3,0c-0.3,0-0.6,0-0.8,0v-0.6l1.8,0l1.5,0v0.6
			c-0.5,0-0.7,0.1-0.8,0.1c-0.1,0.1-0.4,0.6-0.8,1.6l-0.5,1.2L99,31.6c-0.8,1.9-1.3,3.3-1.7,4.1L96.3,35.8L96.3,35.8z"/>
		<path fill="#01549C" d="M103.2,35.7v-0.4c0.3-0.1,0.5-0.3,0.7-0.4c0-0.2,0.1-0.5,0.1-1c0-0.8,0.1-1.4,0.1-1.8V29
			c0-0.1,0-0.6,0-1.4c0-0.5-0.1-0.9-0.1-1c0,0-0.1-0.1-0.1-0.1c-0.1-0.1-0.5-0.1-1-0.1v-0.5l1.6,0c0.3,0,0.6,0,0.9,0
			c0.7,0,1.4,0,2.2,0l1.4,0c0.2,0,0.5,0,1,0c0.1,0,0.1,0,0.2,0l0.1,0.1l-0.1,1c0,0.1,0,0.4-0.1,1h-0.6c0-0.6,0-0.9-0.1-1
			c0-0.1-0.1-0.1-0.1-0.1c-0.1,0-0.2-0.1-0.6-0.1c-0.5,0-0.9-0.1-1.4-0.1c-0.4,0-0.8,0-1.3,0c-0.1,0.5-0.1,1.2-0.1,2v1.5
			c0.3,0,0.7,0,1,0c0.1,0,0.5,0,1.2,0c0.3,0,0.4,0,0.4,0c0.1,0,0.1-0.1,0.1-0.1c0.1-0.2,0.1-0.5,0.1-0.9h0.6l0,1.5l0,1.5h-0.6
			c0-0.5,0-0.9-0.1-1c-0.1-0.1-0.2-0.1-0.3-0.2c-0.3,0-0.8-0.1-1.3-0.1c-0.5,0-0.8,0-1.1,0v3c0,0.3,0,0.6,0,0.8c0.4,0,0.8,0,1.3,0
			c0.5,0,1,0,1.4,0s0.7-0.1,0.8-0.1c0,0,0.1-0.1,0.1-0.1c0.1-0.2,0.2-0.7,0.3-1.3h0.6c-0.1,0.9-0.2,1.7-0.2,2.3l-0.1,0.1
			c-0.3,0-0.7,0-1.3,0l-1.1,0c-1.1,0-1.9,0-2.3,0C105.4,35.6,104.6,35.7,103.2,35.7z"/>
		<path fill="#01549C" d="M111.7,26.4v-0.6c0.1,0,0.5,0,1.1,0c0.3,0,0.8,0,1.3,0c0.5,0,0.9,0,1.3,0c0.6,0,1.1,0,1.4,0
			c0.7,0,1.3,0,1.7,0.2s0.7,0.3,0.9,0.7s0.4,0.7,0.4,1.2c0,0.6-0.2,1.1-0.5,1.5c-0.4,0.5-0.9,0.8-1.6,1.1c0.1,0.2,0.3,0.4,0.4,0.6
			s0.2,0.4,0.3,0.4c0,0,0.1,0.1,0.1,0.1l1.1,1.6c0.3,0.4,0.4,0.7,0.5,0.7c0.4,0.5,0.6,0.8,0.7,0.8c0.1,0.1,0.2,0.1,0.2,0.2
			s0.2,0,0.4,0.1v0.6c-0.7,0-1.3,0-1.6,0c-0.4,0-0.8,0-1.1,0c0-0.1-0.1-0.2-0.2-0.4l-1.5-2.5c-0.4-0.7-0.8-1.3-1.1-1.7
			c-0.2-0.2-0.3-0.4-0.4-0.5l0.1-0.2c0.6,0,1,0,1.3-0.2c0.3-0.1,0.5-0.4,0.7-0.7c0.2-0.4,0.3-0.7,0.3-1.2s-0.1-0.8-0.3-1.1
			c-0.2-0.3-0.5-0.5-0.8-0.6c-0.2-0.1-0.6-0.1-1.1-0.1c-0.2,0-0.4,0-0.7,0.1c0,0.2,0,0.5,0,1.1c0,1.3,0,2.2,0,2.7c0,0.7,0,1.5,0,2.3
			c0,1,0,1.5,0,1.7c0,0.3,0,0.4,0.1,0.5c0,0,0.1,0.1,0.1,0.1c0,0,0.1,0,0.2,0.1c0.1,0,0.4,0,0.8,0v0.6c-0.8,0-1.6,0-2.4,0
			c-0.7,0-1.4,0-2,0v-0.6c0.5,0,0.8,0,0.9-0.1c0.1,0,0.1,0,0.1-0.1s0.1-0.1,0.1-0.2c0-0.2,0.1-0.5,0.1-0.8l0.1-2.1v-2.6l0-1.5
			c0-0.6,0-0.9-0.1-1.1c0,0-0.1-0.1-0.1-0.1C112.7,26.5,112.3,26.4,111.7,26.4z"/>
		<path fill="#01549C" d="M128.9,28.4h-0.6c0-0.5,0-0.9-0.1-1.2c-0.1-0.2-0.4-0.4-0.8-0.5c-0.4-0.2-0.8-0.2-1.2-0.2
			c-0.6,0-1.1,0.2-1.5,0.5c-0.3,0.3-0.5,0.7-0.5,1.1c0,0.3,0.1,0.6,0.2,0.8c0.1,0.2,0.2,0.3,0.4,0.5c0.2,0.1,0.5,0.2,0.8,0.3
			c0.3,0,0.7,0.1,1.1,0.2c0.5,0.1,0.8,0.1,0.9,0.2c0.4,0.1,0.7,0.2,0.9,0.4c0.2,0.1,0.4,0.3,0.6,0.5s0.3,0.4,0.3,0.7
			s0.1,0.6,0.1,0.9c0,0.6-0.1,1.1-0.4,1.6c-0.2,0.3-0.4,0.7-0.8,0.9c-0.3,0.3-0.7,0.5-1,0.6c-0.6,0.2-1.2,0.3-2,0.3
			c-0.6,0-1.1,0-1.6-0.2c-0.4-0.1-0.9-0.3-1.5-0.6c0.2-0.5,0.2-1.4,0.2-2.5h0.6c0,0.3,0,0.8,0.1,1.3c0.2,0.3,0.5,0.5,0.9,0.8
			c0.4,0.2,0.9,0.3,1.4,0.3c0.4,0,0.8-0.1,1.2-0.2s0.6-0.4,0.8-0.7s0.2-0.6,0.2-1c0-0.3-0.1-0.5-0.2-0.8c-0.1-0.2-0.3-0.4-0.5-0.5
			c-0.2-0.1-0.7-0.3-1.2-0.4c-0.8-0.2-1.4-0.3-1.7-0.4c-0.4-0.1-0.7-0.3-1-0.5c-0.2-0.2-0.4-0.5-0.6-0.8s-0.2-0.7-0.2-1.1
			c0-0.5,0.1-1,0.3-1.5c0.2-0.4,0.5-0.8,0.9-1s0.8-0.4,1.2-0.5c0.5-0.1,0.9-0.2,1.4-0.2c0.5,0,1,0,1.4,0.1c0.5,0.1,0.9,0.2,1.2,0.4
			l0.1,0.2c-0.1,0.3-0.1,0.6-0.1,0.9C128.9,27.5,128.9,27.9,128.9,28.4z"/>
		<path fill="#01549C" d="M135.3,25.8v0.6c-0.5,0-0.8,0-0.9,0c-0.1,0-0.1,0-0.2,0.1c0,0-0.1,0.1-0.1,0.1c0,0.1-0.1,0.2-0.1,0.5
			c0,0.1,0,0.4,0,0.7c0,1.2,0,1.8,0,1.9v2.8l0,1.3c0,0.5,0,0.8,0.1,1c0,0.1,0.1,0.1,0.1,0.2c0.1,0,0.1,0.1,0.2,0.1
			c0.1,0,0.4,0,0.8,0v0.6c-0.8,0-1.6,0-2.5,0c-0.8,0-1.4,0-2,0v-0.6c0.5,0,0.8,0,0.9,0c0.1,0,0.2,0,0.2-0.1c0,0,0.1-0.1,0.1-0.1
			c0,0,0-0.3,0.1-0.7c0-0.6,0.1-1.1,0.1-1.6v-3c0-0.9,0-1.5,0-1.8c0-0.6-0.1-1-0.1-1.1c0-0.1,0-0.1-0.1-0.1c0,0-0.1-0.1-0.2-0.1
			c-0.1,0-0.4,0-0.9-0.1v-0.6c0.6,0,1.3,0,2,0C133.7,25.9,134.5,25.9,135.3,25.8z"/>
		<path fill="#01549C" d="M138.3,35.7v-0.6c0.6,0,0.9-0.1,1-0.1c0.1-0.1,0.2-0.2,0.2-0.3c0.1-0.2,0.1-0.8,0.1-1.8v-4.2
			c0-1.2,0-1.8,0-1.9h-1c-0.5,0-1,0-1.3,0c-0.2,0-0.2,0-0.3,0c0,0-0.1,0.1-0.1,0.2c-0.1,0.3-0.1,0.7-0.1,1.1h-0.6c0-1,0-1.5,0-1.6
			c0-0.2,0-0.4-0.1-0.7l0.1-0.1c0.2,0,0.5,0,0.7,0c0.4,0,1.2,0,2.3,0h2.9c1.2,0,2,0,2.4,0c0.2,0,0.4,0,0.6,0l0.1,0.1
			c0,0.3-0.1,0.5-0.1,0.8c0,0,0,0.6,0,1.5h-0.6c0-0.4,0-0.7-0.1-1c0-0.2-0.1-0.3-0.1-0.3c0,0-0.1,0-0.2,0c-0.4,0-0.9,0-1.4,0h-1
			c0,0.2,0,0.8,0,1.9v4.2c0,1,0,1.6,0.1,1.8c0,0.1,0.1,0.2,0.2,0.3c0.1,0.1,0.4,0.1,1,0.1v0.6c-0.9,0-1.7-0.1-2.3-0.1
			C139.9,35.6,139.2,35.7,138.3,35.7z"/>
		<path fill="#01549C" d="M151.1,30.5l0.9-1.4c0.1-0.3,0.6-1,1.3-2.4c0.3-0.5,0.4-0.7,0.5-0.9h1.1v0.3c-0.6,0.8-1.2,1.7-1.9,2.7
			c-0.7,1-1.1,1.7-1.2,2c-0.1,0.2-0.2,0.4-0.2,0.5c0,0.1,0,0.3,0,0.5v1.2c0,0.6,0,1,0.1,1.3c0,0.3,0.1,0.4,0.1,0.5
			c0,0,0.1,0.1,0.2,0.1c0.1,0,0.4,0,0.9,0.1v0.6c-0.9,0-1.7,0-2.4,0c-0.7,0-1.4,0-2.1,0v-0.6c0.5,0,0.9,0,0.9-0.1
			c0.1,0,0.2-0.1,0.2-0.1c0,0,0.1-0.2,0.1-0.4c0-0.5,0-1,0-1.4v-1.3c0-0.1-0.1-0.3-0.3-0.7c-0.4-0.8-0.9-1.6-1.4-2.4
			c-0.4-0.6-0.8-1.1-1.1-1.5c-0.2-0.3-0.4-0.4-0.5-0.5c-0.1,0-0.3,0-0.6,0v-0.5l1.5-0.3c0.3,0,0.5-0.1,0.8-0.2
			c0.3,0.2,0.5,0.3,0.6,0.4c0.1,0.1,0.3,0.4,0.5,0.7c0.3,0.5,0.7,1.1,1,1.8C150.7,29.6,151,30.3,151.1,30.5z"/>
		<path fill="#01549C" d="M158.8,33.7c0-0.6,0.1-1.2,0.3-1.8c0.2-0.6,0.4-1.1,0.6-1.4c0.1-0.2,0.4-0.4,0.8-0.7
			c0.4-0.3,0.8-0.5,1.2-0.7c0.4-0.2,0.9-0.3,1.4-0.3c0.4,0,0.8,0.1,1.1,0.2c0.3,0.1,0.6,0.3,0.8,0.5c0.2,0.2,0.3,0.4,0.4,0.7
			s0.1,0.6,0.1,0.9c0,0.6-0.1,1.2-0.3,1.8c-0.2,0.6-0.4,1.1-0.7,1.4c-0.2,0.2-0.5,0.5-0.9,0.8s-0.8,0.5-1.2,0.6
			c-0.4,0.1-0.8,0.2-1.3,0.2c-0.6,0-1-0.1-1.3-0.3s-0.6-0.5-0.7-0.8C158.9,34.5,158.8,34.1,158.8,33.7z M160.5,33.7
			c0,0.6,0.1,1,0.3,1.2s0.5,0.4,0.9,0.4c0.3,0,0.5-0.1,0.7-0.2c0.2-0.1,0.4-0.3,0.5-0.6c0.2-0.3,0.3-0.7,0.4-1.2
			c0.2-0.7,0.3-1.5,0.3-2.1c0-0.6-0.1-1-0.3-1.2c-0.2-0.3-0.5-0.4-0.9-0.4c-0.4,0-0.7,0.1-1,0.4c-0.3,0.3-0.5,0.8-0.7,1.6
			C160.6,32.3,160.5,33,160.5,33.7z"/>
		<path fill="#01549C" d="M166.8,29.9l0.1-0.4c0.1-0.1,0.4-0.1,0.7-0.2s0.6-0.2,0.8-0.3c0-0.1,0.1-0.2,0.1-0.4
			c0.1-0.4,0.2-0.7,0.3-0.8c0.1-0.2,0.3-0.5,0.6-0.7c0.4-0.4,0.9-0.8,1.4-1.1c0.5-0.4,0.8-0.6,1-0.6s0.4-0.1,0.7-0.1
			c0.2,0,0.4,0,0.6,0.1c-0.2,0.6-0.3,1.2-0.4,1.8l-0.2,0c-0.2-0.3-0.4-0.5-0.6-0.6c-0.2-0.1-0.4-0.2-0.5-0.2c-0.1,0-0.2,0-0.3,0.1
			s-0.2,0.2-0.3,0.3c-0.1,0.1-0.1,0.3-0.2,0.5c-0.2,0.6-0.3,1.3-0.4,1.9h0.2c0.1,0,0.4,0,0.9,0c0.3,0,0.5,0,0.7-0.1l0.1,0.1
			c-0.1,0.3-0.2,0.5-0.2,0.7c-0.2,0-0.6,0-1.1,0c-0.3,0-0.6,0-0.7,0l-0.8,3.4c-0.4,1.5-0.7,2.6-1,3.3c-0.3,0.7-0.6,1.3-1.1,1.8
			c-0.4,0.5-0.9,0.9-1.4,1.1c-0.2,0.1-0.5,0.2-0.7,0.2c-0.2,0-0.3,0-0.5-0.1c0.1-0.3,0.2-0.6,0.3-0.8c0.1-0.2,0.1-0.5,0.2-0.7l0.2,0
			c0.1,0.2,0.2,0.4,0.3,0.5c0.1,0.1,0.2,0.1,0.4,0.1s0.3,0,0.4-0.1s0.2-0.2,0.3-0.5c0.2-0.5,0.4-1.4,0.6-2.8l1-5.3
			c-0.3,0-0.6,0-0.9,0C167.1,29.8,166.9,29.8,166.8,29.9z"/>
		<path fill="#01549C" d="M182.3,32.3h-0.6c0-0.6-0.1-0.9-0.1-1.1c0-0.1-0.1-0.1-0.3-0.1c-0.4-0.1-0.9-0.1-1.6-0.1
			c-0.1,0-0.3,0-0.6,0v0.8c0,1.1,0,1.9,0,2.4s0.1,0.7,0.1,0.8c0,0,0.1,0.1,0.2,0.1c0.1,0,0.5,0.1,1.1,0.1v0.5l-2.8,0
			c-0.4,0-1,0-1.9,0v-0.6c0.5,0,0.9,0,0.9-0.1c0,0,0.1,0,0.1-0.1c0,0,0.1-0.2,0.1-0.4c0-0.1,0-0.5,0.1-1s0-1,0-1.2v-2.9
			c0-0.1,0-0.7-0.1-2c0-0.4,0-0.6-0.1-0.8c0,0,0-0.1-0.1-0.1c0,0-0.1,0-0.2-0.1c-0.1,0-0.4,0-0.8-0.1v-0.6l2.5,0l3.4-0.1
			c0.5,0,0.9,0,1.4,0.1l0.1,0.1c-0.1,0.3-0.1,0.6-0.1,1c0,0.4-0.1,0.8-0.1,1.1h-0.6c0-0.1,0-0.4,0-0.8c0-0.2,0-0.3-0.1-0.4
			c0,0,0,0-0.1-0.1c-0.1,0-0.3-0.1-0.6-0.2c-0.3,0-0.7-0.1-1.1-0.1c-0.1,0-0.3,0-0.7,0c-0.4,0-0.6,0-0.8,0c-0.1,0.5-0.1,1.3-0.1,2.5
			v1c0.6,0,1,0,1.2,0c0.6,0,1,0,1.1-0.1c0.1,0,0.1-0.1,0.1-0.2c0-0.1,0.1-0.4,0.1-0.8h0.6C182.3,30,182.3,31,182.3,32.3z"/>
		<path fill="#01549C" d="M184.4,35.7v-0.4c0.1,0,0.3-0.2,0.5-0.3c0.1,0,0.2-0.1,0.2-0.1c0,0,0,0,0-0.1c0-0.1,0.1-0.5,0.1-1.3
			c0-0.7,0-1.6,0-2.6c0-1.5,0-2.4,0-2.8c0-0.9-0.1-1.4-0.1-1.5c0,0-0.1-0.1-0.1-0.1c-0.1-0.1-0.5-0.1-1.1-0.1v-0.6
			c0.6,0,1.3,0,2.1,0c0.9,0,1.7,0,2.4,0v0.6c-0.5,0-0.9,0.1-1,0.1c-0.1,0-0.1,0.1-0.1,0.1c0,0.1-0.1,0.4-0.1,0.9c0,0.5,0,1.2,0,2
			c0,0.1,0,0.8,0,2c0,0.7,0,1.3,0,2s0,1.1,0,1.2c0.6,0,1.1,0,1.3,0c0.7,0,1.3,0,1.9-0.1c0.2,0,0.3-0.1,0.3-0.1c0,0,0.1-0.1,0.1-0.3
			c0.1-0.4,0.2-0.8,0.3-1.2h0.6c0,0.1,0,0.2,0,0.2l-0.2,1.4c0,0.5-0.1,0.7-0.1,0.8c-0.1,0-0.3,0.1-0.4,0.1c-0.3,0-0.7,0-1.3,0
			c-0.1,0-0.6,0-1.7,0c-0.8,0-1.3,0-1.6,0C186.1,35.6,185.4,35.7,184.4,35.7z"/>
		<path fill="#01549C" d="M192.5,30.9c0-0.9,0.1-1.6,0.4-2.3s0.6-1.2,1.1-1.6c0.5-0.5,1-0.8,1.6-1c0.7-0.3,1.5-0.4,2.4-0.4
			s1.6,0.1,2.3,0.4c0.5,0.2,1,0.5,1.4,0.8s0.7,0.7,0.9,1.1c0.2,0.4,0.4,0.8,0.5,1.2s0.2,0.9,0.2,1.4c0,0.9-0.1,1.7-0.5,2.5
			c-0.2,0.6-0.6,1.1-1,1.5s-0.9,0.8-1.5,1c-0.8,0.3-1.6,0.5-2.6,0.5c-1.1,0-2-0.2-2.7-0.6s-1.4-1-1.8-1.7
			C192.7,32.9,192.5,32,192.5,30.9z M194.6,30.5c0,1.1,0.1,2,0.4,2.7c0.3,0.7,0.7,1.2,1.2,1.5s1,0.4,1.7,0.4c0.6,0,1.1-0.1,1.6-0.4
			s0.8-0.8,1.1-1.4c0.3-0.7,0.4-1.5,0.4-2.5c0-0.7-0.1-1.3-0.2-1.8c-0.1-0.5-0.4-1-0.6-1.4c-0.3-0.4-0.6-0.7-0.9-0.9
			c-0.4-0.2-0.9-0.3-1.4-0.3c-0.7,0-1.3,0.2-1.8,0.5s-0.8,0.8-1.1,1.4C194.8,29,194.6,29.7,194.6,30.5z"/>
		<path fill="#01549C" d="M203.5,26.4v-0.6c0.1,0,0.5,0,1.1,0c0.3,0,0.8,0,1.3,0c0.5,0,0.9,0,1.3,0c0.6,0,1.1,0,1.4,0
			c0.7,0,1.3,0,1.7,0.2c0.4,0.1,0.7,0.3,0.9,0.7s0.4,0.7,0.4,1.2c0,0.6-0.2,1.1-0.5,1.5s-0.9,0.8-1.6,1.1c0.1,0.2,0.3,0.4,0.4,0.6
			s0.2,0.4,0.3,0.4c0,0,0.1,0.1,0.1,0.1l1.1,1.6c0.3,0.4,0.4,0.7,0.5,0.7c0.4,0.5,0.6,0.8,0.6,0.8c0.1,0.1,0.2,0.1,0.2,0.2
			c0.1,0,0.2,0,0.4,0.1v0.6c-0.7,0-1.3,0-1.6,0c-0.4,0-0.8,0-1.1,0c0-0.1-0.1-0.2-0.2-0.4l-1.5-2.5c-0.4-0.7-0.8-1.3-1.1-1.7
			c-0.1-0.2-0.3-0.4-0.4-0.5l0.1-0.2c0.6,0,1,0,1.3-0.2c0.3-0.1,0.5-0.4,0.7-0.7c0.2-0.4,0.3-0.7,0.3-1.2s-0.1-0.8-0.3-1.1
			c-0.2-0.3-0.5-0.5-0.8-0.6c-0.2-0.1-0.6-0.1-1.1-0.1c-0.2,0-0.4,0-0.7,0.1c0,0.2,0,0.5,0,1.1c0,1.3,0,2.2,0,2.7c0,0.7,0,1.5,0,2.3
			c0,1,0,1.5,0,1.7c0,0.3,0,0.4,0.1,0.5c0,0,0.1,0.1,0.1,0.1c0,0,0.1,0,0.2,0.1s0.4,0,0.8,0v0.6c-0.8,0-1.6,0-2.4,0
			c-0.7,0-1.4,0-2,0v-0.6c0.5,0,0.9,0,0.9-0.1c0.1,0,0.1,0,0.1-0.1s0.1-0.1,0.1-0.2c0-0.2,0.1-0.5,0.1-0.8l0.1-2.1v-2.6l0-1.5
			c0-0.6,0-0.9-0.1-1.1c0,0-0.1-0.1-0.1-0.1C204.4,26.5,204.1,26.4,203.5,26.4z"/>
		<path fill="#01549C" d="M218.5,25.8v0.6c-0.5,0-0.8,0-0.9,0c-0.1,0-0.1,0-0.2,0.1c0,0-0.1,0.1-0.1,0.1c0,0.1-0.1,0.2-0.1,0.5
			c0,0.1,0,0.4,0,0.7c0,1.2,0,1.8,0,1.9v2.8l0,1.3c0,0.5,0,0.8,0.1,1c0,0.1,0.1,0.1,0.1,0.2c0.1,0,0.1,0.1,0.2,0.1
			c0.1,0,0.4,0,0.8,0v0.6c-0.8,0-1.6,0-2.5,0c-0.8,0-1.4,0-2,0v-0.6c0.5,0,0.8,0,0.9,0c0.1,0,0.2,0,0.2-0.1c0,0,0.1-0.1,0.1-0.1
			c0,0,0-0.3,0.1-0.7c0-0.6,0.1-1.1,0.1-1.6v-3c0-0.9,0-1.5,0-1.8c0-0.6-0.1-1-0.1-1.1c0-0.1,0-0.1-0.1-0.1c0,0-0.1-0.1-0.2-0.1
			s-0.4,0-0.9-0.1v-0.6c0.6,0,1.3,0,2,0C216.9,25.9,217.7,25.9,218.5,25.8z"/>
		<path fill="#01549C" d="M219.9,35.7v-0.3c0,0,0.1-0.1,0.2-0.1c0.2-0.1,0.3-0.2,0.5-0.3c0.1-0.6,0.1-1.7,0.1-3.1v-1.2
			c0-0.6,0-1.5,0-2.7c0-0.7-0.1-1.1-0.1-1.3c0,0,0-0.1-0.1-0.1c0,0-0.1-0.1-0.2-0.1s-0.4-0.1-0.9-0.1v-0.6l2.6,0c0.3,0,0.9,0,1.7,0
			c0.6,0,1.1,0,1.4,0c0.8,0,1.5,0,2,0.1s0.9,0.3,1.3,0.5s0.7,0.5,0.9,0.8c0.3,0.3,0.4,0.6,0.6,1c0.2,0.6,0.3,1.2,0.3,2
			c0,0.9-0.2,1.7-0.5,2.4s-0.8,1.3-1.4,1.8s-1.2,0.8-1.9,1c-0.7,0.2-1.5,0.3-2.4,0.3l-2.1,0L219.9,35.7z M222.7,34.9
			c0.4,0.1,0.9,0.1,1.3,0.1c0.6,0,1.2-0.1,1.7-0.2c0.4-0.1,0.7-0.3,0.9-0.4c0.3-0.2,0.5-0.5,0.8-0.8c0.2-0.4,0.4-0.8,0.6-1.3
			c0.1-0.5,0.2-1.1,0.2-1.6c0-0.5-0.1-1.1-0.2-1.6s-0.4-0.9-0.7-1.3c-0.3-0.4-0.7-0.6-1.2-0.8c-0.5-0.2-1.2-0.3-2.2-0.3
			c-0.4,0-0.8,0-1.2,0.1c-0.1,0.7-0.1,1.9-0.1,3.8v1.6C222.6,33.5,222.7,34.4,222.7,34.9z"/>
		<path fill="#01549C" d="M229.6,35.7v-0.6c0.4,0,0.6,0,0.7-0.1c0.1,0,0.1,0,0.2-0.1c0.1,0,0.1-0.1,0.2-0.2s0.2-0.5,0.5-1.1
			c0.1-0.3,0.4-0.9,0.7-1.7l1.8-4.5l0.6-1.6h1l3.2,7.4l0.4,1l0.3,0.7c0.1,0.1,0.1,0.1,0.1,0.2c0,0,0.1,0.1,0.1,0.1
			c0.1,0,0.2,0,0.4,0c0.1,0,0.2,0,0.3,0v0.6l-2,0l-2.5,0v-0.6c0.6,0,0.9-0.1,1-0.1c0.1,0,0.1-0.1,0.1-0.2c0-0.1-0.1-0.3-0.2-0.6
			l-0.6-1.5h-3.6l-0.3,0.8c-0.2,0.7-0.4,1-0.4,1.2c0,0.1,0,0.2,0.1,0.2c0.1,0.1,0.4,0.1,1,0.1v0.6l-1.6,0L229.6,35.7z M232.7,31.9
			c0.4,0,0.9,0,1.5,0c0.5,0,1,0,1.5,0l-1.5-3.6L232.7,31.9z"/>
	</g>
</g>
</svg>
